<mxfile host="app.diagrams.net" modified="2024-03-10T18:58:43.155Z" agent="Mozilla/5.0 (Windows NT 10.0; Win64; x64) AppleWebKit/537.36 (KHTML, like Gecko) Chrome/122.0.0.0 Safari/537.36 Edg/122.0.0.0" etag="1sGE9BxNNwkZA5huDd7L" version="24.0.4" type="github">
  <diagram name="Page-1" id="urUMy4_EmTp5BTyYWSlY">
    <mxGraphModel dx="996" dy="1673" grid="1" gridSize="10" guides="1" tooltips="1" connect="1" arrows="1" fold="1" page="1" pageScale="1" pageWidth="850" pageHeight="1100" math="0" shadow="0">
      <root>
        <mxCell id="0" />
        <mxCell id="1" parent="0" />
        <mxCell id="87bGv3G--wxuMp120URP-10" style="edgeStyle=orthogonalEdgeStyle;rounded=0;orthogonalLoop=1;jettySize=auto;html=1;exitX=0.75;exitY=0;exitDx=0;exitDy=0;endArrow=none;endFill=0;" edge="1" parent="1" source="87bGv3G--wxuMp120URP-1" target="87bGv3G--wxuMp120URP-8">
          <mxGeometry relative="1" as="geometry" />
        </mxCell>
        <mxCell id="87bGv3G--wxuMp120URP-11" style="edgeStyle=orthogonalEdgeStyle;rounded=0;orthogonalLoop=1;jettySize=auto;html=1;exitX=0.25;exitY=0;exitDx=0;exitDy=0;entryX=0.5;entryY=1;entryDx=0;entryDy=0;endArrow=none;endFill=0;" edge="1" parent="1" source="87bGv3G--wxuMp120URP-1" target="87bGv3G--wxuMp120URP-4">
          <mxGeometry relative="1" as="geometry" />
        </mxCell>
        <mxCell id="87bGv3G--wxuMp120URP-1" value="Employee" style="rounded=0;whiteSpace=wrap;html=1;" vertex="1" parent="1">
          <mxGeometry x="180" y="110" width="120" height="60" as="geometry" />
        </mxCell>
        <mxCell id="87bGv3G--wxuMp120URP-5" style="edgeStyle=orthogonalEdgeStyle;rounded=0;orthogonalLoop=1;jettySize=auto;html=1;entryX=0;entryY=0.25;entryDx=0;entryDy=0;endArrow=none;endFill=0;" edge="1" parent="1" source="87bGv3G--wxuMp120URP-2" target="87bGv3G--wxuMp120URP-1">
          <mxGeometry relative="1" as="geometry" />
        </mxCell>
        <mxCell id="87bGv3G--wxuMp120URP-2" value="&lt;u&gt;employee&lt;/u&gt;&lt;div&gt;&lt;u&gt;number&lt;/u&gt;&lt;/div&gt;" style="ellipse;whiteSpace=wrap;html=1;aspect=fixed;" vertex="1" parent="1">
          <mxGeometry x="100" y="15" width="80" height="80" as="geometry" />
        </mxCell>
        <mxCell id="87bGv3G--wxuMp120URP-4" value="Fname" style="ellipse;whiteSpace=wrap;html=1;aspect=fixed;" vertex="1" parent="1">
          <mxGeometry x="190" y="5" width="70" height="70" as="geometry" />
        </mxCell>
        <mxCell id="87bGv3G--wxuMp120URP-8" value="Lname" style="ellipse;whiteSpace=wrap;html=1;aspect=fixed;" vertex="1" parent="1">
          <mxGeometry x="270" y="20" width="75" height="75" as="geometry" />
        </mxCell>
        <mxCell id="87bGv3G--wxuMp120URP-13" style="edgeStyle=orthogonalEdgeStyle;rounded=0;orthogonalLoop=1;jettySize=auto;html=1;entryX=0;entryY=0.5;entryDx=0;entryDy=0;endArrow=none;endFill=0;" edge="1" parent="1" source="87bGv3G--wxuMp120URP-12" target="87bGv3G--wxuMp120URP-1">
          <mxGeometry relative="1" as="geometry" />
        </mxCell>
        <mxCell id="87bGv3G--wxuMp120URP-12" value="postal_code" style="ellipse;whiteSpace=wrap;html=1;aspect=fixed;" vertex="1" parent="1">
          <mxGeometry x="50" y="100" width="80" height="80" as="geometry" />
        </mxCell>
        <mxCell id="87bGv3G--wxuMp120URP-21" style="edgeStyle=orthogonalEdgeStyle;rounded=0;orthogonalLoop=1;jettySize=auto;html=1;exitX=0.75;exitY=0;exitDx=0;exitDy=0;entryX=0;entryY=1;entryDx=0;entryDy=0;endArrow=none;endFill=0;" edge="1" parent="1" source="87bGv3G--wxuMp120URP-14" target="87bGv3G--wxuMp120URP-20">
          <mxGeometry relative="1" as="geometry" />
        </mxCell>
        <mxCell id="87bGv3G--wxuMp120URP-14" value="customer" style="rounded=0;whiteSpace=wrap;html=1;" vertex="1" parent="1">
          <mxGeometry x="600" y="110" width="120" height="60" as="geometry" />
        </mxCell>
        <mxCell id="87bGv3G--wxuMp120URP-16" style="edgeStyle=orthogonalEdgeStyle;rounded=0;orthogonalLoop=1;jettySize=auto;html=1;entryX=0;entryY=0.25;entryDx=0;entryDy=0;endArrow=none;endFill=0;" edge="1" parent="1" source="87bGv3G--wxuMp120URP-15" target="87bGv3G--wxuMp120URP-14">
          <mxGeometry relative="1" as="geometry" />
        </mxCell>
        <mxCell id="87bGv3G--wxuMp120URP-15" value="&lt;u&gt;Customer&lt;/u&gt;&lt;div&gt;&lt;u&gt;number&lt;/u&gt;&lt;/div&gt;" style="ellipse;whiteSpace=wrap;html=1;aspect=fixed;" vertex="1" parent="1">
          <mxGeometry x="520" y="15" width="80" height="80" as="geometry" />
        </mxCell>
        <mxCell id="87bGv3G--wxuMp120URP-17" value="Fname" style="ellipse;whiteSpace=wrap;html=1;aspect=fixed;" vertex="1" parent="1">
          <mxGeometry x="610" y="20" width="65" height="65" as="geometry" />
        </mxCell>
        <mxCell id="87bGv3G--wxuMp120URP-18" style="edgeStyle=orthogonalEdgeStyle;rounded=0;orthogonalLoop=1;jettySize=auto;html=1;entryX=0.32;entryY=0.01;entryDx=0;entryDy=0;entryPerimeter=0;endArrow=none;endFill=0;" edge="1" parent="1" source="87bGv3G--wxuMp120URP-17" target="87bGv3G--wxuMp120URP-14">
          <mxGeometry relative="1" as="geometry">
            <Array as="points">
              <mxPoint x="638" y="100" />
              <mxPoint x="638" y="100" />
            </Array>
          </mxGeometry>
        </mxCell>
        <mxCell id="87bGv3G--wxuMp120URP-20" value="Lname" style="ellipse;whiteSpace=wrap;html=1;aspect=fixed;" vertex="1" parent="1">
          <mxGeometry x="690" y="28" width="67" height="67" as="geometry" />
        </mxCell>
        <mxCell id="87bGv3G--wxuMp120URP-23" value="" style="edgeStyle=orthogonalEdgeStyle;rounded=0;orthogonalLoop=1;jettySize=auto;html=1;endArrow=none;endFill=0;" edge="1" parent="1" source="87bGv3G--wxuMp120URP-22" target="87bGv3G--wxuMp120URP-14">
          <mxGeometry relative="1" as="geometry" />
        </mxCell>
        <mxCell id="87bGv3G--wxuMp120URP-22" value="Postal_code" style="ellipse;whiteSpace=wrap;html=1;aspect=fixed;" vertex="1" parent="1">
          <mxGeometry x="740" y="100" width="80" height="80" as="geometry" />
        </mxCell>
        <mxCell id="87bGv3G--wxuMp120URP-28" style="edgeStyle=orthogonalEdgeStyle;rounded=0;orthogonalLoop=1;jettySize=auto;html=1;exitX=0.5;exitY=1;exitDx=0;exitDy=0;endArrow=none;endFill=0;" edge="1" parent="1" source="87bGv3G--wxuMp120URP-24" target="87bGv3G--wxuMp120URP-27">
          <mxGeometry relative="1" as="geometry">
            <Array as="points">
              <mxPoint x="200" y="380" />
              <mxPoint x="200" y="400" />
            </Array>
          </mxGeometry>
        </mxCell>
        <mxCell id="87bGv3G--wxuMp120URP-33" style="edgeStyle=orthogonalEdgeStyle;rounded=0;orthogonalLoop=1;jettySize=auto;html=1;exitX=0.75;exitY=1;exitDx=0;exitDy=0;entryX=0;entryY=0;entryDx=0;entryDy=0;endArrow=none;endFill=0;" edge="1" parent="1" source="87bGv3G--wxuMp120URP-24" target="87bGv3G--wxuMp120URP-31">
          <mxGeometry relative="1" as="geometry" />
        </mxCell>
        <mxCell id="87bGv3G--wxuMp120URP-49" style="edgeStyle=orthogonalEdgeStyle;rounded=0;orthogonalLoop=1;jettySize=auto;html=1;entryX=0.5;entryY=1;entryDx=0;entryDy=0;endArrow=none;endFill=0;" edge="1" parent="1" source="87bGv3G--wxuMp120URP-24" target="87bGv3G--wxuMp120URP-34">
          <mxGeometry relative="1" as="geometry" />
        </mxCell>
        <mxCell id="87bGv3G--wxuMp120URP-24" value="Sold Part" style="rounded=0;whiteSpace=wrap;html=1;" vertex="1" parent="1">
          <mxGeometry x="160" y="320" width="120" height="60" as="geometry" />
        </mxCell>
        <mxCell id="87bGv3G--wxuMp120URP-26" value="" style="edgeStyle=orthogonalEdgeStyle;rounded=0;orthogonalLoop=1;jettySize=auto;html=1;endArrow=none;endFill=0;" edge="1" parent="1" source="87bGv3G--wxuMp120URP-25" target="87bGv3G--wxuMp120URP-24">
          <mxGeometry relative="1" as="geometry" />
        </mxCell>
        <mxCell id="87bGv3G--wxuMp120URP-25" value="&lt;u&gt;Partnumber&lt;/u&gt;" style="ellipse;whiteSpace=wrap;html=1;aspect=fixed;" vertex="1" parent="1">
          <mxGeometry x="70" y="320" width="70" height="70" as="geometry" />
        </mxCell>
        <mxCell id="87bGv3G--wxuMp120URP-27" value="Name" style="ellipse;whiteSpace=wrap;html=1;aspect=fixed;" vertex="1" parent="1">
          <mxGeometry x="120" y="390" width="60" height="60" as="geometry" />
        </mxCell>
        <mxCell id="87bGv3G--wxuMp120URP-30" value="" style="edgeStyle=orthogonalEdgeStyle;rounded=0;orthogonalLoop=1;jettySize=auto;html=1;endArrow=none;endFill=0;" edge="1" parent="1" source="87bGv3G--wxuMp120URP-29" target="87bGv3G--wxuMp120URP-24">
          <mxGeometry relative="1" as="geometry" />
        </mxCell>
        <mxCell id="87bGv3G--wxuMp120URP-29" value="Price" style="ellipse;whiteSpace=wrap;html=1;aspect=fixed;" vertex="1" parent="1">
          <mxGeometry x="190" y="410" width="60" height="60" as="geometry" />
        </mxCell>
        <mxCell id="87bGv3G--wxuMp120URP-31" value="amount" style="ellipse;whiteSpace=wrap;html=1;aspect=fixed;" vertex="1" parent="1">
          <mxGeometry x="275" y="405" width="70" height="70" as="geometry" />
        </mxCell>
        <mxCell id="87bGv3G--wxuMp120URP-38" value="" style="edgeStyle=orthogonalEdgeStyle;rounded=0;orthogonalLoop=1;jettySize=auto;html=1;endArrow=none;endFill=0;" edge="1" parent="1" source="87bGv3G--wxuMp120URP-34" target="87bGv3G--wxuMp120URP-1">
          <mxGeometry relative="1" as="geometry" />
        </mxCell>
        <mxCell id="87bGv3G--wxuMp120URP-39" style="edgeStyle=orthogonalEdgeStyle;rounded=0;orthogonalLoop=1;jettySize=auto;html=1;entryX=0;entryY=0.5;entryDx=0;entryDy=0;endArrow=none;endFill=0;" edge="1" parent="1" source="87bGv3G--wxuMp120URP-34" target="87bGv3G--wxuMp120URP-14">
          <mxGeometry relative="1" as="geometry" />
        </mxCell>
        <mxCell id="87bGv3G--wxuMp120URP-41" value="" style="edgeStyle=orthogonalEdgeStyle;rounded=0;orthogonalLoop=1;jettySize=auto;html=1;endArrow=none;endFill=0;" edge="1" parent="1" source="87bGv3G--wxuMp120URP-34" target="87bGv3G--wxuMp120URP-40">
          <mxGeometry relative="1" as="geometry" />
        </mxCell>
        <mxCell id="87bGv3G--wxuMp120URP-42" style="edgeStyle=orthogonalEdgeStyle;rounded=0;orthogonalLoop=1;jettySize=auto;html=1;exitX=1;exitY=0;exitDx=0;exitDy=0;endArrow=none;endFill=0;" edge="1" parent="1" source="87bGv3G--wxuMp120URP-34" target="87bGv3G--wxuMp120URP-51">
          <mxGeometry relative="1" as="geometry">
            <mxPoint x="500" y="-30" as="targetPoint" />
            <Array as="points">
              <mxPoint x="445" y="40" />
              <mxPoint x="500" y="40" />
            </Array>
          </mxGeometry>
        </mxCell>
        <mxCell id="87bGv3G--wxuMp120URP-45" style="edgeStyle=orthogonalEdgeStyle;rounded=0;orthogonalLoop=1;jettySize=auto;html=1;exitX=0;exitY=0;exitDx=0;exitDy=0;endArrow=none;endFill=0;" edge="1" parent="1" source="87bGv3G--wxuMp120URP-34" target="87bGv3G--wxuMp120URP-46">
          <mxGeometry relative="1" as="geometry">
            <mxPoint x="360" y="-120" as="targetPoint" />
            <Array as="points">
              <mxPoint x="405" y="40" />
              <mxPoint x="360" y="40" />
            </Array>
          </mxGeometry>
        </mxCell>
        <mxCell id="87bGv3G--wxuMp120URP-34" value="order" style="rhombus;whiteSpace=wrap;html=1;" vertex="1" parent="1">
          <mxGeometry x="385" y="100" width="80" height="80" as="geometry" />
        </mxCell>
        <mxCell id="87bGv3G--wxuMp120URP-40" value="&lt;u&gt;Order_number&amp;nbsp;&lt;/u&gt;" style="ellipse;whiteSpace=wrap;html=1;" vertex="1" parent="1">
          <mxGeometry x="385" y="-60" width="80" height="80" as="geometry" />
        </mxCell>
        <mxCell id="87bGv3G--wxuMp120URP-46" value="recieve_date" style="ellipse;whiteSpace=wrap;html=1;aspect=fixed;" vertex="1" parent="1">
          <mxGeometry x="320" y="-120" width="80" height="80" as="geometry" />
        </mxCell>
        <mxCell id="87bGv3G--wxuMp120URP-50" value="(1,N)" style="text;html=1;align=center;verticalAlign=middle;resizable=0;points=[];autosize=1;strokeColor=none;fillColor=none;" vertex="1" parent="1">
          <mxGeometry x="415" y="180" width="50" height="30" as="geometry" />
        </mxCell>
        <mxCell id="87bGv3G--wxuMp120URP-51" value="send_date" style="ellipse;whiteSpace=wrap;html=1;aspect=fixed;" vertex="1" parent="1">
          <mxGeometry x="460" y="-120" width="80" height="80" as="geometry" />
        </mxCell>
        <mxCell id="87bGv3G--wxuMp120URP-52" value="(1,1)" style="text;html=1;align=center;verticalAlign=middle;resizable=0;points=[];autosize=1;strokeColor=none;fillColor=none;" vertex="1" parent="1">
          <mxGeometry x="345" y="110" width="50" height="30" as="geometry" />
        </mxCell>
        <mxCell id="87bGv3G--wxuMp120URP-53" value="(1,1)" style="text;html=1;align=center;verticalAlign=middle;resizable=0;points=[];autosize=1;strokeColor=none;fillColor=none;" vertex="1" parent="1">
          <mxGeometry x="450" y="110" width="50" height="30" as="geometry" />
        </mxCell>
      </root>
    </mxGraphModel>
  </diagram>
</mxfile>
